
<svg width="128" height="47" viewBox="0 0 128 47" fill="none" xmlns="http://www.w3.org/2000/svg">
<path d="M23.2614 21.6778L23.2377 13.5803C23.203 13.5803 23.1698 13.5803 23.135 13.5803L23.1587 21.6778H23.2614Z" fill="white"/>
<path d="M23.0893 21.5918L22.4056 13.6155C22.3709 13.6187 22.3377 13.6219 22.3046 13.625L22.9882 21.6013L23.0893 21.5918Z" fill="white"/>
<path d="M22.9062 21.5151L21.5752 13.7222C21.542 13.7285 21.5073 13.7333 21.4741 13.7397L22.8051 21.5311L22.9062 21.5135V21.5151Z" fill="white"/>
<path d="M22.7119 21.4547L20.7573 13.9009C20.7241 13.9089 20.691 13.9184 20.6578 13.928L22.6125 21.4802L22.7119 21.4547Z" fill="white"/>
<path d="M22.5051 21.4132L19.9552 14.1511C19.9236 14.1623 19.8905 14.1734 19.8589 14.1862L22.4087 21.4482L22.5051 21.4132Z" fill="white"/>
<path d="M22.2873 21.3907L19.1769 14.4683C19.1453 14.4826 19.1153 14.497 19.0837 14.5113L22.1941 21.4338L22.2873 21.3907Z" fill="white"/>
<path d="M22.0615 21.3924L18.4317 14.8525C18.4017 14.8701 18.3717 14.886 18.3433 14.9036L21.9731 21.4434L22.0615 21.3924Z" fill="white"/>
<path d="M21.8325 21.4211L17.7211 15.2974C17.6927 15.3165 17.6659 15.3372 17.6375 15.3564L21.7472 21.4785L21.8325 21.4211Z" fill="white"/>
<path d="M21.5988 21.4738L17.0517 15.8013C17.0249 15.8236 16.998 15.8443 16.9728 15.8666L21.5183 21.5392L21.5973 21.4738H21.5988Z" fill="white"/>
<path d="M21.3636 21.5519L16.4281 16.3608C16.4028 16.3848 16.3792 16.4087 16.3555 16.4326L21.291 21.6236L21.3652 21.5519H21.3636Z" fill="white"/>
<path d="M21.1299 21.6538L15.8517 16.9697C15.8296 16.9952 15.8075 17.0223 15.7854 17.0478L21.0635 21.7319L21.1314 21.6538H21.1299Z" fill="white"/>
<path d="M20.9026 21.7815L15.3307 17.6267C15.3102 17.6538 15.2897 17.6825 15.2708 17.7096L20.8426 21.8628L20.9026 21.7799V21.7815Z" fill="white"/>
<path d="M20.6815 21.933L14.8634 18.3267C14.846 18.3554 14.8286 18.3856 14.8113 18.4143L20.6278 22.0207L20.6815 21.933Z" fill="white"/>
<path d="M20.47 22.1099L14.4577 19.0664C14.4419 19.0967 14.4277 19.1286 14.4119 19.1589L20.4242 22.2024L20.47 22.1099Z" fill="white"/>
<path d="M20.271 22.3091L14.115 19.8379C14.1024 19.8698 14.0898 19.9017 14.0787 19.9335L20.2347 22.4047L20.2726 22.3091H20.271Z" fill="white"/>
<path d="M20.0863 22.5338L13.8387 20.6382C13.8292 20.6717 13.8198 20.7036 13.8103 20.737L20.0579 22.6327L20.0879 22.5338H20.0863Z" fill="white"/>
<path d="M19.922 22.7811L13.6319 21.4595C13.6255 21.493 13.6176 21.5264 13.6113 21.5599L19.8999 22.8816L19.9205 22.7811H19.922Z" fill="white"/>
<path d="M19.78 23.052L13.4946 22.2947C13.4898 22.3282 13.4867 22.3632 13.4835 22.3967L19.7674 23.154L19.78 23.052Z" fill="white"/>
<path d="M19.6616 23.3437L13.4298 23.1333C13.4298 23.1684 13.4266 23.2019 13.4266 23.2369L19.6584 23.4474L19.6616 23.3437Z" fill="white"/>
<path d="M19.5654 23.6531L13.4347 23.9719C13.4363 24.007 13.4379 24.0405 13.4394 24.0756L19.5702 23.7567L19.5654 23.6531Z" fill="white"/>
<path d="M19.4958 23.9768L13.5088 24.8106C13.5135 24.8441 13.5183 24.8792 13.523 24.9127L19.51 24.0788L19.4958 23.9768Z" fill="white"/>
<path d="M19.4548 24.3132L13.6541 25.6445C13.6619 25.678 13.6683 25.7114 13.6762 25.7449L19.4785 24.4137L19.4564 24.3132H19.4548Z" fill="white"/>
<path d="M19.4437 24.6575L13.8688 26.4622C13.8782 26.4957 13.8893 26.5276 13.9004 26.5611L19.4753 24.7563L19.4437 24.6575Z" fill="white"/>
<path d="M19.4658 25.0115L14.153 27.2594C14.1656 27.2913 14.1782 27.3232 14.1908 27.3551L19.5037 25.1071L19.4642 25.0115H19.4658Z" fill="white"/>
<path d="M19.521 25.3687L14.5034 28.0264C14.5192 28.0566 14.535 28.0869 14.5508 28.1172L19.5684 25.4595L19.521 25.3687Z" fill="white"/>
<path d="M19.6142 25.7273L14.9155 28.7597C14.9329 28.7884 14.9518 28.8186 14.9692 28.8473L19.6679 25.815L19.6126 25.7273H19.6142Z" fill="white"/>
<path d="M19.7421 26.0828L15.3876 29.4531C15.4081 29.4802 15.4286 29.5073 15.4491 29.5344L19.8037 26.1641L19.7421 26.0828Z" fill="white"/>
<path d="M19.9047 26.4335L15.9165 30.1036C15.9386 30.1291 15.9623 30.1546 15.9844 30.1801L19.9742 26.5084L19.9047 26.4319V26.4335Z" fill="white"/>
<path d="M20.1021 26.7747L16.496 30.7078C16.5212 30.7317 16.5465 30.754 16.5702 30.7779L20.1763 26.8448L20.1021 26.7747Z" fill="white"/>
<path d="M20.3342 27.1032L17.1244 31.2579C17.1512 31.2786 17.1781 31.301 17.2049 31.3217L20.4147 27.1653L20.3342 27.1016V27.1032Z" fill="white"/>
<path d="M20.5979 27.4155L17.797 31.7536C17.8254 31.7728 17.8538 31.7919 17.8823 31.811L20.6832 27.4713L20.5979 27.4155Z" fill="white"/>
<path d="M23.2346 25.3223L23.2583 33.4197C23.2931 33.4197 23.3263 33.4197 23.361 33.4197L23.3373 25.3223H23.2346Z" fill="white"/>
<path d="M23.4066 25.4082L24.0903 33.3845C24.125 33.3813 24.1582 33.3782 24.1913 33.375L23.5077 25.3987L23.4066 25.4082Z" fill="white"/>
<path d="M23.5898 25.4849L24.9208 33.2779C24.954 33.2715 24.9887 33.2667 25.0219 33.2603L23.6909 25.469L23.5898 25.4865V25.4849Z" fill="white"/>
<path d="M23.7841 25.5455L25.7387 33.0993C25.7718 33.0914 25.805 33.0818 25.8382 33.0722L23.8835 25.52L23.7841 25.5455Z" fill="white"/>
<path d="M23.9908 25.5868L26.5407 32.8489C26.5723 32.8377 26.6054 32.8266 26.637 32.8138L24.0872 25.5518L23.9908 25.5868Z" fill="white"/>
<path d="M24.2087 25.6092L27.3191 32.5317C27.3507 32.5173 27.3807 32.503 27.4123 32.4886L24.3019 25.5662L24.2087 25.6092Z" fill="white"/>
<path d="M24.4346 25.6091L28.0644 32.1489C28.0944 32.1314 28.1244 32.1155 28.1528 32.0979L24.523 25.5581L24.4346 25.6091Z" fill="white"/>
<path d="M24.6635 25.5789L28.7748 31.7026C28.8032 31.6835 28.8301 31.6627 28.8585 31.6436L24.7487 25.5215L24.6635 25.5789Z" fill="white"/>
<path d="M24.8971 25.5263L29.4442 31.1988C29.4711 31.1765 29.4979 31.1558 29.5232 31.1335L24.9776 25.4609L24.8987 25.5263H24.8971Z" fill="white"/>
<path d="M25.1323 25.4497L30.0678 30.6407C30.0931 30.6168 30.1168 30.5929 30.1405 30.569L25.2049 25.3779L25.1307 25.4497H25.1323Z" fill="white"/>
<path d="M25.3661 25.3462L30.6442 30.0302C30.6663 30.0047 30.6884 29.9776 30.7105 29.9521L25.4324 25.2681L25.3645 25.3462H25.3661Z" fill="white"/>
<path d="M25.5934 25.2185L31.1652 29.3733C31.1857 29.3462 31.2062 29.3175 31.2252 29.2904L25.6534 25.1372L25.5934 25.2201V25.2185Z" fill="white"/>
<path d="M25.8145 25.0672L31.6326 28.6735C31.6499 28.6448 31.6673 28.6145 31.6847 28.5858L25.8681 24.9795L25.8145 25.0672Z" fill="white"/>
<path d="M26.026 24.8901L32.0383 27.9336C32.0541 27.9033 32.0683 27.8714 32.0841 27.8411L26.0718 24.7976L26.026 24.8901Z" fill="white"/>
<path d="M26.225 24.6909L32.381 27.162C32.3936 27.1302 32.4062 27.0983 32.4173 27.0664L26.2613 24.5952L26.2234 24.6909H26.225Z" fill="white"/>
<path d="M26.4097 24.466L32.6572 26.3617C32.6667 26.3282 32.6762 26.2963 32.6856 26.2628L26.4381 24.3672L26.4081 24.466H26.4097Z" fill="white"/>
<path d="M26.5739 24.2191L32.864 25.5408C32.8704 25.5073 32.8783 25.4738 32.8846 25.4403L26.596 24.1187L26.5754 24.2191H26.5739Z" fill="white"/>
<path d="M26.7159 23.948L33.0014 24.7053C33.0061 24.6718 33.0093 24.6367 33.0124 24.6032L26.7286 23.8459L26.7159 23.948Z" fill="white"/>
<path d="M26.8344 23.6561L33.0661 23.8666C33.0661 23.8315 33.0693 23.798 33.0693 23.7629L26.8375 23.5525L26.8344 23.6561Z" fill="white"/>
<path d="M26.9306 23.3468L33.0614 23.0279C33.0598 22.9929 33.0582 22.9594 33.0566 22.9243L26.9259 23.2432L26.9306 23.3468Z" fill="white"/>
<path d="M27.0002 23.0233L32.9872 22.1894C32.9825 22.156 32.9777 22.1209 32.973 22.0874L26.986 22.9212L27.0002 23.0233Z" fill="white"/>
<path d="M27.0413 22.6885L32.842 21.3573C32.8341 21.3238 32.8278 21.2903 32.8199 21.2568L27.0176 22.5881L27.0397 22.6885H27.0413Z" fill="white"/>
<path d="M27.0523 22.3426L32.6273 20.5378C32.6178 20.5043 32.6068 20.4724 32.5957 20.439L27.0208 22.2437L27.0523 22.3426Z" fill="white"/>
<path d="M27.0302 21.9901L32.3431 19.7421C32.3304 19.7103 32.3178 19.6784 32.3052 19.6465L26.9923 21.8944L27.0318 21.9901H27.0302Z" fill="white"/>
<path d="M26.9749 21.6314L31.9925 18.9737C31.9767 18.9434 31.9609 18.9131 31.9451 18.8828L26.9275 21.5405L26.9749 21.6314Z" fill="white"/>
<path d="M26.8818 21.2726L31.5805 18.2403C31.5631 18.2116 31.5442 18.1813 31.5268 18.1526L26.8281 21.1849L26.8834 21.2726H26.8818Z" fill="white"/>
<path d="M26.7538 20.9172L31.1083 17.5469C31.0878 17.5198 31.0673 17.4927 31.0468 17.4656L26.6923 20.8359L26.7538 20.9172Z" fill="white"/>
<path d="M26.5896 20.5664L30.5778 16.8964C30.5557 16.8708 30.532 16.8453 30.5099 16.8198L26.5201 20.4915L26.5896 20.568V20.5664Z" fill="white"/>
<path d="M26.3939 20.2252L30 16.2921C29.9748 16.2682 29.9495 16.2458 29.9258 16.2219L26.3197 20.1551L26.3939 20.2252Z" fill="white"/>
<path d="M26.1618 19.8967L29.3716 15.742C29.3448 15.7213 29.318 15.6989 29.2911 15.6782L26.0813 19.8346L26.1618 19.8983V19.8967Z" fill="white"/>
<path d="M25.8981 19.5845L28.699 15.2464C28.6706 15.2272 28.6422 15.2081 28.6138 15.189L25.8129 19.5287L25.8981 19.5845Z" fill="white"/>
<path d="M25.6013 19.2909L27.9854 14.8077C27.9554 14.7918 27.9254 14.7742 27.8954 14.7583L25.5114 19.2415L25.6013 19.2909Z" fill="white"/>
<path d="M25.276 19.02L27.2385 14.4316C27.207 14.4172 27.1754 14.4045 27.1454 14.3901L25.1813 18.9785L25.2744 19.02H25.276Z" fill="white"/>
<path d="M24.9208 18.7745L26.4617 14.1223C26.4302 14.1112 26.397 14.1 26.3654 14.0889L24.8245 18.7426L24.9208 18.7761V18.7745Z" fill="white"/>
<path d="M24.5371 18.5593L25.6597 13.8816C25.6265 13.8736 25.5933 13.8656 25.5602 13.8577L24.4376 18.5353L24.5371 18.5593Z" fill="white"/>
<path d="M24.1297 18.3728L24.8418 13.7094C24.8086 13.7046 24.7755 13.6983 24.7408 13.6919L24.0287 18.3552L24.1297 18.3712V18.3728Z" fill="white"/>
<path d="M23.7004 18.2244L24.0146 13.6089C23.9814 13.6057 23.9467 13.6041 23.912 13.6025L23.5978 18.218L23.7004 18.2244Z" fill="white"/>
<path d="M20.8947 27.709L18.5106 32.1922C18.5406 32.2081 18.5706 32.2256 18.6006 32.2416L20.9847 27.7584L20.8947 27.709Z" fill="white"/>
<path d="M21.22 27.98L19.2574 32.5684C19.289 32.5827 19.319 32.5955 19.3506 32.6098L21.3147 28.0214L21.2216 27.98H21.22Z" fill="white"/>
<path d="M21.5751 28.2255L20.0342 32.8776C20.0658 32.8888 20.0989 32.9 20.1305 32.9111L21.6715 28.2574L21.5751 28.2239V28.2255Z" fill="white"/>
<path d="M21.9589 28.4424L20.8363 33.1201C20.8695 33.128 20.9026 33.136 20.9358 33.144L22.0583 28.4663L21.9589 28.4424Z" fill="white"/>
<path d="M22.3647 28.6272L21.6526 33.2905C21.6857 33.2953 21.7189 33.3017 21.7536 33.3081L22.4657 28.6447L22.3647 28.6288V28.6272Z" fill="white"/>
<path d="M22.7956 28.7754L22.4814 33.3909C22.5146 33.3941 22.5493 33.3957 22.5841 33.3973L22.8983 28.7818L22.7956 28.7754Z" fill="white"/>
<path d="M77.8047 14.9211C77.8047 15.1571 77.7336 15.3532 77.5947 15.503C77.4558 15.6545 77.2758 15.7294 77.0516 15.7294C76.8416 15.7294 76.6616 15.6609 76.5163 15.5269C76.3711 15.393 76.2985 15.2224 76.2985 15.02C76.2985 14.8526 76.3695 14.6533 76.5163 14.4301C76.5495 14.3759 76.5669 14.3232 76.5669 14.2786C76.5669 14.0219 76.3837 13.8912 76.0206 13.8912C75.4032 13.8912 74.9927 14.2961 74.7954 15.1045C74.6975 15.5333 74.6454 16.2795 74.6454 17.3476V18.1735H75.7348C75.9558 18.1735 76.0632 18.2213 76.0632 18.317C76.0632 18.4126 75.9211 18.4605 75.6322 18.4605H74.6422V32.8713C74.6422 33.0292 74.7954 33.1073 75.1033 33.1073C75.5753 33.0977 75.8359 33.1169 75.8801 33.1759C75.8895 33.1854 75.8974 33.2093 75.8974 33.2444C75.8974 33.3225 75.8295 33.3608 75.6969 33.3608C75.629 33.3608 75.5753 33.3544 75.5311 33.3433L74.1607 33.3608H72.3387C72.1382 33.3608 72.0371 33.3225 72.0371 33.2444C72.0371 33.1551 72.1192 33.1073 72.2787 33.1073C72.8518 33.1073 73.1644 33.0738 73.2213 33.0085C73.2449 32.9845 73.2544 27.1653 73.2544 27.1207L73.237 32.6912V18.4796C72.8234 18.4796 72.585 18.4732 72.5187 18.4621C72.4508 18.4525 72.4176 18.4078 72.4176 18.3281C72.4176 18.2261 72.5187 18.1767 72.7192 18.1767H73.2513C73.2955 16.7482 73.4849 15.7214 73.8212 15.0901C74.3328 14.124 75.1001 13.6377 76.1248 13.6377C76.6127 13.6377 77.0168 13.7573 77.3295 13.9932C77.6484 14.226 77.8047 14.5385 77.8047 14.9179" fill="white"/>
<path d="M83.8501 26.9692C83.8501 27.0473 83.7286 27.0919 83.4838 27.1031C82.6155 27.1573 81.8529 27.3502 81.1977 27.6754C81.1534 27.6993 81.1124 27.7089 81.0824 27.7089C81.0145 27.7089 80.9813 27.6643 80.9813 27.575V26.6296C80.4729 27.3486 79.7609 27.7089 78.8436 27.7089C78.0257 27.7089 77.44 27.4698 77.0863 26.9899C76.9442 26.7874 76.8589 26.6057 76.8289 26.4383C76.8021 26.2709 76.7879 25.8181 76.7879 25.0815V21.2456C76.7879 20.855 76.7642 20.6254 76.72 20.5601C76.6758 20.4915 76.5226 20.4532 76.2684 20.4437H76.0506C75.749 20.4676 75.599 20.423 75.599 20.3098C75.599 20.2316 75.6937 20.1902 75.8832 20.1902C76.0837 20.1902 76.3711 20.2045 76.7516 20.2348C76.941 20.2492 77.05 20.2587 77.0847 20.2587C77.4747 20.2587 77.8378 20.2348 78.171 20.1902V24.8726C78.171 25.732 78.2246 26.3043 78.3367 26.5849C78.5167 27.0202 78.8767 27.2386 79.423 27.2386C80.0135 27.2386 80.4477 26.9915 80.7256 26.4988C80.9261 26.1433 81.0271 25.571 81.0271 24.7866V22.1863C81.0271 21.8068 81.0098 21.5214 80.9766 21.3301V20.7785C80.9671 20.6111 80.9292 20.5106 80.8677 20.4835C80.8061 20.4564 80.6814 20.4421 80.4919 20.4421C80.0246 20.4517 79.7893 20.4038 79.7893 20.2906C79.7893 20.2221 79.9077 20.1918 80.1382 20.1918H82.4118V24.8982C82.4118 25.7065 82.4292 26.2198 82.4592 26.4335C82.4923 26.6455 82.5776 26.7699 82.7134 26.8033C82.8523 26.8368 83.1617 26.8544 83.6465 26.8544C83.7854 26.8512 83.8501 26.8878 83.8501 26.9676" fill="white"/>
<path d="M87.1405 27.4237C87.1405 27.5257 87.0694 27.5752 86.9226 27.5752H86.7221C86.6984 27.5752 86.4063 27.5656 85.8363 27.5417H85.3169C85.2285 27.5417 84.7816 27.5481 83.9796 27.5656C83.9117 27.572 83.847 27.572 83.7791 27.572C83.6133 27.5815 83.528 27.5385 83.528 27.4317C83.528 27.3567 83.5896 27.3217 83.7112 27.3217H84.1454C84.458 27.3217 84.6127 27.2531 84.6127 27.1192C84.6222 27.0506 84.6301 26.6122 84.6301 25.8039V15.2608C84.6301 14.8909 84.6206 14.6884 84.5969 14.6549C84.5638 14.5657 84.4753 14.521 84.3285 14.521H83.7285C83.5722 14.521 83.4949 14.4732 83.4949 14.3775C83.4949 14.2914 83.6338 14.2436 83.9117 14.234C84.4469 14.2006 84.9427 14.0762 85.3974 13.8642L85.7463 13.6968L85.8821 13.6458C85.9705 13.971 86.0116 14.4684 85.9974 15.1285V26.5516C85.9974 26.8912 86.0037 27.0889 86.0147 27.1511C86.0258 27.2133 86.0653 27.2531 86.1331 27.277C86.1426 27.2866 86.351 27.3009 86.7505 27.3105C87.0078 27.3073 87.1373 27.3488 87.1373 27.4237" fill="white"/>
<path d="M95.057 27.4507C95.057 27.5368 94.9717 27.5767 94.8059 27.5767H91.7319C91.5866 27.5767 91.514 27.5384 91.514 27.4603C91.514 27.4061 91.544 27.371 91.6056 27.3615C91.6671 27.3519 91.8803 27.3375 92.2497 27.328C92.4597 27.3184 92.5829 27.2865 92.616 27.2355C92.6492 27.1845 92.6666 27.0027 92.6666 26.6871V23.457C92.6666 22.2342 92.6224 21.504 92.5339 21.268C92.3445 20.7642 91.9671 20.5107 91.3972 20.5107C90.8272 20.5107 90.3725 20.7579 89.9935 21.2505C89.8814 21.3972 89.8278 21.5965 89.8278 21.8563V27.1048C89.8278 27.2387 89.9462 27.3136 90.1846 27.3248L90.693 27.3423C90.8051 27.3423 90.8619 27.3806 90.8619 27.4587C90.8619 27.5368 90.794 27.5751 90.6614 27.5751H87.6189C87.4532 27.5751 87.3679 27.5416 87.3679 27.4731C87.3679 27.4045 87.4658 27.3599 87.6695 27.3391H88.0863C88.2521 27.3391 88.3547 27.2977 88.3878 27.2227L88.4384 26.9693V23.304C88.4384 22.0269 88.4289 21.3206 88.4052 21.1835C88.3815 21.0496 88.2457 20.9811 87.9884 20.9811H87.5037C87.2795 20.9811 87.1705 20.9396 87.1705 20.8551C87.1705 20.7483 87.289 20.6941 87.5195 20.6941C87.8526 20.6845 88.2142 20.6223 88.6057 20.5091C88.9973 20.3959 89.2673 20.2652 89.4236 20.1217C89.5215 20.0324 89.6004 19.9878 89.6572 19.9878C89.7346 19.9878 89.7725 20.0946 89.7725 20.3067V21.115C90.3519 20.3609 91.0987 19.9846 92.0113 19.9846C92.8118 19.9846 93.3913 20.2828 93.7481 20.879C93.9486 21.2186 94.0496 21.8579 94.0496 22.8002V26.6472C94.0496 27.0075 94.067 27.202 94.1002 27.2371C94.1681 27.3056 94.3275 27.3391 94.5849 27.3391H94.8864C94.9954 27.3423 95.0522 27.3806 95.0522 27.4523" fill="white"/>
<path d="M101.365 25.5438C101.365 25.6634 101.273 25.8802 101.087 26.1911C100.9 26.4988 100.711 26.7523 100.52 26.9484C100.004 27.4825 99.312 27.7503 98.4468 27.7503C97.3653 27.7503 96.4622 27.3565 95.7327 26.569C95.0065 25.7814 94.6433 24.8009 94.6433 23.637C94.6433 22.4732 94.9891 21.4098 95.6775 20.5983C96.369 19.7868 97.2311 19.3787 98.2652 19.3787C99.1194 19.3787 99.833 19.6322 100.409 20.136C100.986 20.6398 101.292 21.287 101.328 22.0746C100.945 22.1368 100.433 22.1607 99.7951 22.1464H98.5336C98.4484 22.1464 97.73 22.1639 96.369 22.2006C96.3074 22.6007 96.2774 22.9818 96.2774 23.3453C96.2774 24.5681 96.5079 25.5072 96.9721 26.1672C97.4332 26.8256 98.0884 27.1573 98.9299 27.1573C99.4115 27.1573 99.7951 27.0472 100.082 26.8288C100.371 26.6088 100.682 26.1911 101.019 25.5709C101.066 25.4753 101.134 25.4243 101.216 25.4243C101.311 25.4179 101.361 25.4577 101.361 25.5438M99.7904 21.8307C99.743 20.3751 99.2236 19.6449 98.24 19.6449C97.2563 19.6449 96.6595 20.3751 96.418 21.8307H99.7904Z" fill="white"/>
<path d="M107.565 24.9125C107.565 25.7001 107.28 26.3713 106.714 26.9197C106.147 27.4713 105.468 27.7455 104.685 27.7455C104.23 27.7455 103.677 27.5845 103.025 27.2593C102.852 27.1636 102.7 27.1158 102.564 27.1158C102.378 27.1158 102.239 27.2465 102.144 27.5032C102.091 27.6674 102.015 27.7471 101.923 27.7471C101.832 27.7471 101.784 27.6929 101.784 27.5861V24.8631C101.784 24.7116 101.832 24.6399 101.927 24.6399C102.035 24.6399 102.092 24.7148 102.107 24.8662C102.189 25.496 102.361 25.987 102.632 26.3426C103.168 27.052 103.887 27.4076 104.786 27.4076C105.271 27.4076 105.657 27.2641 105.953 26.9787C106.248 26.6949 106.396 26.3107 106.396 25.8388C106.396 25.3079 106.227 24.887 105.891 24.5745C105.705 24.3959 105.531 24.2732 105.379 24.1982C105.223 24.1233 104.772 23.9447 104.019 23.6578C102.526 23.0854 101.783 22.2293 101.783 21.0893C101.783 20.3289 102.037 19.688 102.542 19.1714C103.048 18.6548 103.676 18.3966 104.421 18.3966C104.69 18.3966 105.086 18.4795 105.618 18.6405C105.751 18.6819 105.872 18.7027 105.978 18.7027C106.259 18.7027 106.433 18.5656 106.497 18.2945C106.538 18.1574 106.598 18.0889 106.677 18.0889C106.772 18.0889 106.816 18.1431 106.816 18.2531V19.232C106.802 19.5572 106.837 20.0786 106.917 20.7976V20.839C106.917 20.949 106.864 21.0033 106.755 21.0033C106.673 21.0033 106.575 20.7976 106.453 20.3863C106.303 19.8936 106.046 19.495 105.676 19.1937C105.307 18.8924 104.882 18.7409 104.397 18.7409C103.94 18.7409 103.562 18.8844 103.269 19.1698C102.973 19.4536 102.825 19.8171 102.825 20.2491C102.825 20.9267 103.276 21.4449 104.175 21.7972C105.572 22.3552 106.458 22.8176 106.834 23.1843C107.321 23.6562 107.563 24.2317 107.563 24.9141" fill="white"/>
<path d="M114.573 24.6193C114.573 25.4898 114.261 26.2295 113.634 26.8354C113.01 27.4412 112.26 27.7473 111.392 27.7473C110.89 27.7473 110.279 27.5687 109.56 27.21C109.371 27.108 109.2 27.0522 109.052 27.0522C108.845 27.0522 108.692 27.1957 108.588 27.4763C108.529 27.6548 108.449 27.7473 108.343 27.7473C108.237 27.7473 108.187 27.6883 108.187 27.5687V24.5619C108.187 24.3977 108.237 24.3148 108.343 24.3148C108.461 24.3148 108.529 24.3977 108.544 24.5651C108.632 25.2602 108.825 25.8022 109.12 26.1928C109.714 26.9772 110.508 27.3678 111.498 27.3678C112.03 27.3678 112.461 27.21 112.786 26.8959C113.111 26.5819 113.274 26.1594 113.274 25.6348C113.274 25.0497 113.088 24.5826 112.718 24.2414C112.511 24.0469 112.322 23.9098 112.151 23.8237C111.982 23.7408 111.48 23.5431 110.651 23.2274C109.006 22.5977 108.182 21.6523 108.182 20.3912C108.182 19.5526 108.46 18.8463 109.02 18.274C109.581 17.7016 110.272 17.4178 111.093 17.4178C111.389 17.4178 111.829 17.5071 112.417 17.6888C112.562 17.7335 112.694 17.7574 112.813 17.7574C113.122 17.7574 113.312 17.6059 113.386 17.3094C113.43 17.1579 113.495 17.083 113.583 17.083C113.684 17.083 113.736 17.1452 113.736 17.2648V18.3409C113.722 18.7012 113.76 19.2768 113.849 20.0707V20.1154C113.849 20.2349 113.79 20.2939 113.672 20.2939C113.583 20.2939 113.471 20.0675 113.339 19.6164C113.176 19.0711 112.89 18.6327 112.484 18.3011C112.077 17.9694 111.607 17.8004 111.073 17.8004C110.539 17.8004 110.154 17.9583 109.827 18.2724C109.5 18.5864 109.339 18.985 109.339 19.4649C109.339 20.2158 109.838 20.7834 110.828 21.174C112.372 21.791 113.348 22.3012 113.762 22.7045C114.305 23.2354 114.573 23.8731 114.573 24.6225" fill="white"/>
<path d="M45.9686 22.6599C45.9686 24.1219 45.5581 25.3415 44.737 26.322C43.916 27.3009 42.8945 27.792 41.6772 27.792C40.7173 27.792 39.9784 27.4428 39.4557 26.7397V31.8463C39.4557 32.1683 39.4652 32.3565 39.4889 32.4155C39.5094 32.4744 39.5805 32.5255 39.6989 32.5701C39.9199 32.6147 40.3431 32.6355 40.9746 32.6355C41.1514 32.6355 41.2399 32.7008 41.2399 32.8348C41.2399 32.9368 41.1451 32.9894 40.9588 32.9894H36.7022C36.2822 32.9894 36.0707 32.9352 36.0707 32.8252C36.0707 32.6849 36.1591 32.6163 36.3312 32.6163H36.9785C37.3985 32.6163 37.6227 32.5207 37.6495 32.3325C37.6637 32.2433 37.6701 31.5721 37.6701 30.3158V19.3916C37.6701 18.9835 37.4727 18.7921 37.0827 18.8224H36.1701C36.0407 18.8224 35.9728 18.7682 35.9728 18.6582C35.9728 18.5179 36.1322 18.4494 36.4512 18.4494C37.2485 18.4637 37.9716 18.274 38.6221 17.8802C38.8084 17.7638 38.9552 17.7048 39.0563 17.7048C39.1716 17.7048 39.2458 17.759 39.2837 17.869C39.3215 17.9791 39.3452 18.3107 39.3579 18.8655C39.8931 18.0907 40.6604 17.7048 41.6583 17.7048C42.9166 17.7048 43.9476 18.1672 44.7513 19.0951C45.5612 20.0229 45.9654 21.2091 45.9654 22.6567L45.9686 22.6599ZM44.0345 22.6695C44.0345 21.5296 43.8576 20.5523 43.5118 19.7471C43.0477 18.6343 42.3277 18.0763 41.3504 18.0763C40.842 18.0763 40.4046 18.2549 40.0415 18.6136C39.6784 18.9723 39.481 19.4075 39.451 19.9225C39.421 20.5666 39.4305 21.9234 39.4715 23.988C39.4857 25.0291 39.5094 25.6556 39.5363 25.8692C39.5631 26.0829 39.6578 26.2981 39.8205 26.5165C40.2404 27.116 40.7867 27.4173 41.4562 27.4173C42.2124 27.4173 42.7793 27.0953 43.1598 26.4512C43.7439 25.4675 44.0345 24.208 44.0345 22.6695Z" fill="white"/>
<path d="M53.476 25.509C53.476 25.6318 53.3813 25.8518 53.1918 26.1675C53.0024 26.4831 52.8082 26.7398 52.6155 26.9343C52.0898 27.4748 51.3872 27.749 50.5093 27.749C49.4104 27.749 48.4915 27.3488 47.7511 26.5469C47.0121 25.745 46.6411 24.7517 46.6411 23.5704C46.6411 22.389 46.99 21.3064 47.6926 20.4806C48.3952 19.6548 49.2699 19.2402 50.3214 19.2402C51.1898 19.2402 51.9161 19.4969 52.5034 20.0071C53.0908 20.5173 53.4018 21.1757 53.4365 21.9761C53.0466 22.0382 52.5271 22.0621 51.8798 22.051H50.5977C50.5125 22.051 49.7799 22.0685 48.4 22.1052C48.3384 22.5101 48.3084 22.896 48.3084 23.2658C48.3084 24.5062 48.5421 25.4612 49.0141 26.1324C49.4862 26.8036 50.1478 27.1368 51.0019 27.1368C51.4898 27.1368 51.8798 27.0268 52.175 26.8052C52.4671 26.582 52.786 26.1579 53.1287 25.5282C53.176 25.4293 53.2439 25.3815 53.3292 25.3815C53.4302 25.3783 53.4792 25.4229 53.4792 25.5074L53.476 25.509ZM51.8845 21.7337C51.8372 20.2542 51.3114 19.5145 50.3104 19.5145C49.3094 19.5145 48.7063 20.2542 48.4615 21.7337H51.8845Z" fill="white"/>
<path d="M60.3347 26.8003C60.3347 26.9821 60.1483 27.1734 59.771 27.3727C59.3936 27.572 59.0352 27.6708 58.6847 27.6708C57.9553 27.6708 57.5748 27.2914 57.5416 26.5261C57.1406 27.3201 56.517 27.7186 55.6691 27.7186C55.2144 27.7186 54.8386 27.5815 54.5434 27.3073C54.2481 27.0331 54.0997 26.6839 54.0997 26.2519C54.0997 25.3718 54.6223 24.6735 55.6628 24.1586C56.0228 23.988 56.6433 23.8158 57.5259 23.6452V23.245C57.5259 22.2996 57.4785 21.6794 57.3838 21.3781C57.2148 20.8297 56.8312 20.5555 56.2375 20.5555C55.8649 20.5555 55.5554 20.6575 55.3044 20.86C55.0534 21.0656 54.9318 21.3223 54.9318 21.6348C54.9318 21.7209 54.9965 21.7655 55.1244 21.7655C55.2523 21.7655 55.3723 21.8309 55.4733 21.9568C55.5791 22.0876 55.6296 22.2311 55.6296 22.3921C55.6296 22.864 55.3991 23.1015 54.9349 23.1015C54.6934 23.1015 54.4944 23.0186 54.335 22.8512C54.1755 22.6838 54.0981 22.475 54.0981 22.2135C54.0981 21.7097 54.2955 21.2745 54.6886 20.9078C55.1228 20.5108 55.7307 20.3115 56.5075 20.3115C57.6774 20.3115 58.3942 20.6336 58.6611 21.2777C58.7558 21.5248 58.8032 22.0142 58.8032 22.7444V25.7561C58.8032 26.2487 58.8095 26.5405 58.8205 26.6265C58.8742 27.014 59.0274 27.2053 59.2815 27.2053C59.58 27.2053 59.8247 27.0985 60.0141 26.8832C60.1199 26.7668 60.2004 26.7047 60.2557 26.7047C60.3094 26.7047 60.3378 26.735 60.3378 26.8003H60.3347ZM57.529 25.0944V23.9194C56.7427 24.1012 56.1791 24.3403 55.8396 24.6353C55.5002 24.9302 55.3281 25.324 55.3281 25.8166C55.3281 26.1594 55.426 26.4432 55.6202 26.6632C55.8144 26.8832 56.0575 26.9916 56.3496 26.9916C56.8012 26.9916 57.1596 26.735 57.4359 26.2168C57.4974 26.1004 57.5306 25.7274 57.5306 25.0928L57.529 25.0944Z" fill="white"/>
<path d="M65.7217 21.9713C65.7217 22.4639 65.4802 22.7111 65.0065 22.7111C64.5329 22.7111 64.3039 22.4847 64.3039 22.0367C64.3039 21.9203 64.3576 21.7417 64.4634 21.5058C64.4934 21.4308 64.5108 21.3543 64.5108 21.2794C64.5108 21.0641 64.4018 20.8888 64.1855 20.7485C63.9692 20.6082 63.6929 20.5396 63.3645 20.5396C62.7266 20.5396 62.2309 20.8202 61.8819 21.375C61.533 21.933 61.3562 22.7174 61.3562 23.725C61.3562 24.8618 61.5362 25.7386 61.8993 26.3556C62.2593 26.9726 62.7708 27.2803 63.4292 27.2803C63.8776 27.2803 64.2739 27.14 64.6229 26.8626C64.7823 26.7319 64.9892 26.4864 65.2433 26.1229C65.297 26.0687 65.3444 26.04 65.3854 26.04C65.4912 26.04 65.5449 26.0846 65.5449 26.1707C65.5449 26.311 65.3586 26.5709 64.9844 26.9583C64.506 27.4621 63.895 27.7156 63.1529 27.7156C62.2167 27.7156 61.443 27.376 60.832 26.7016C60.221 26.0272 59.9163 25.1743 59.9163 24.1427C59.9163 23.0363 60.2415 22.1212 60.8904 21.399C61.5378 20.6767 62.3524 20.3132 63.3298 20.3132C63.9566 20.3132 64.5139 20.4806 64.9955 20.8138C65.477 21.1455 65.7217 21.5329 65.7217 21.9713Z" fill="white"/>
<path d="M71.9898 25.7704C71.9898 25.8772 71.9077 26.0685 71.742 26.3428C71.5762 26.617 71.4088 26.8402 71.2399 27.0108C70.782 27.4827 70.171 27.7202 69.4084 27.7202C68.4516 27.7202 67.6511 27.3711 67.0101 26.6728C66.3659 25.9745 66.047 25.1104 66.047 24.0805C66.047 23.0505 66.3517 22.1115 66.9627 21.3909C67.5738 20.6718 68.3363 20.3115 69.2489 20.3115C70.002 20.3115 70.6367 20.5347 71.1451 20.9795C71.6535 21.4243 71.9251 21.9967 71.9598 22.695C71.6204 22.7492 71.1688 22.7699 70.6036 22.7604H69.4873C69.4131 22.7604 68.7753 22.7779 67.5738 22.8082C67.5201 23.1605 67.4917 23.4969 67.4917 23.819C67.4917 24.8983 67.6953 25.7306 68.1058 26.3125C68.5163 26.8944 69.0926 27.1862 69.8363 27.1862C70.261 27.1862 70.6036 27.0905 70.8578 26.8944C71.112 26.6983 71.3899 26.3332 71.6851 25.7848C71.7262 25.6987 71.7862 25.654 71.8619 25.654C71.9472 25.6572 71.9914 25.6955 71.9914 25.7704H71.9898ZM70.602 22.4861C70.5578 21.198 70.1031 20.5539 69.2316 20.5539C68.36 20.5539 67.8343 21.198 67.6195 22.4861H70.602Z" fill="white"/>
<path d="M81.9082 32.7532C81.9082 33.0067 81.9145 33.2379 81.9287 33.4611H81.684L81.6667 32.9429H81.6572C81.5277 33.2139 81.2293 33.5296 80.7667 33.5296C80.4336 33.5296 79.8762 33.3447 79.8762 32.2494V30.5642H80.1383V32.1952C80.1383 32.8233 80.312 33.2761 80.8283 33.2761C81.2088 33.2761 81.4882 32.9812 81.6003 32.6894C81.6272 32.6001 81.6477 32.4837 81.6477 32.3706V30.5642H81.9098V32.7548L81.9082 32.7532Z" fill="white"/>
<path d="M82.7813 31.2562C82.7813 30.9916 82.775 30.7923 82.7607 30.5627H83.0055L83.0228 31.0808H83.0323C83.1744 30.754 83.5044 30.4941 83.9291 30.4941C84.1801 30.4941 84.8433 30.6344 84.8433 31.7202V33.4611H84.5812V31.7441C84.5812 31.2116 84.398 30.7349 83.8565 30.7349C83.4933 30.7349 83.176 31.0234 83.0718 31.4045C83.0544 31.4699 83.037 31.5655 83.037 31.658V33.4564H82.775V31.2562H82.7781H82.7813Z" fill="white"/>
<path d="M85.8175 29.9823C85.699 29.9823 85.6169 29.8691 85.6169 29.7352C85.6169 29.6013 85.7085 29.4817 85.8269 29.4817C85.9453 29.4817 86.0338 29.5949 86.0338 29.7352C86.0338 29.8755 85.9517 29.9823 85.8238 29.9823H85.8175ZM85.699 33.4595V30.5626H85.9611V33.4595H85.699Z" fill="white"/>
<path d="M87.1943 29.9216V30.5641H87.9395V30.8017H87.1943V32.6862C87.1943 33.0528 87.2969 33.284 87.5748 33.284C87.7106 33.284 87.8101 33.2665 87.8732 33.2426L87.908 33.4594C87.8195 33.4976 87.7011 33.5248 87.5448 33.5248C87.3538 33.5248 87.1975 33.4594 87.0996 33.3255C86.9812 33.174 86.937 32.9269 86.937 32.6319V30.8017H86.4949V30.5641H86.937V30.0316L87.1959 29.9216H87.1943Z" fill="white"/>
<path d="M88.6357 29.9823C88.5173 29.9823 88.4352 29.8691 88.4352 29.7352C88.4352 29.6013 88.5268 29.4817 88.6452 29.4817C88.7636 29.4817 88.852 29.5949 88.852 29.7352C88.852 29.8755 88.7699 29.9823 88.642 29.9823H88.6357ZM88.5173 33.4595V30.5626H88.7794V33.4595H88.5173Z" fill="white"/>
<path d="M89.6525 31.2562C89.6525 30.9916 89.6462 30.7923 89.632 30.5627H89.8767L89.894 31.0808H89.9035C90.0456 30.754 90.3756 30.4941 90.8003 30.4941C91.0513 30.4941 91.7145 30.6344 91.7145 31.7202V33.4611H91.4524V31.7441C91.4524 31.2116 91.2692 30.7349 90.7277 30.7349C90.3646 30.7349 90.0472 31.0234 89.943 31.4045C89.9256 31.4699 89.9083 31.5655 89.9083 31.658V33.4564H89.6462V31.2562H89.6493H89.6525Z" fill="white"/>
<path d="M94.6528 33.0385C94.6528 33.7799 94.5107 34.1513 94.2928 34.3809C94.0544 34.6344 93.7008 34.7237 93.4055 34.7237C93.1103 34.7237 92.774 34.6376 92.5719 34.4702L92.6635 34.2406C92.8466 34.3745 93.1055 34.4814 93.4418 34.4814C93.9929 34.4814 94.3907 34.1657 94.3907 33.3111V32.8998H94.3813C94.2455 33.1948 93.9392 33.4626 93.4734 33.4626C92.8134 33.4626 92.3508 32.8281 92.3508 32.0373C92.3508 31.0281 92.9492 30.4956 93.5271 30.4956C94.0434 30.4956 94.2992 30.8113 94.4081 31.052H94.4176L94.4349 30.5642H94.6765C94.6591 30.781 94.656 31.0106 94.656 31.3119V33.0385H94.6528ZM94.3907 31.6786C94.3907 31.5686 94.3844 31.4793 94.356 31.3932C94.247 31.0504 93.9755 30.7348 93.5476 30.7348C92.9934 30.7348 92.6129 31.2354 92.6129 32.0022C92.6129 32.6543 92.9224 33.2171 93.5381 33.2171C93.8855 33.2171 94.2107 32.9763 94.3465 32.565C94.3734 32.4693 94.3907 32.3593 94.3907 32.2557V31.6786Z" fill="white"/>
<path d="M96.7164 29.166H96.9785V31.0808H96.988C97.0622 30.9166 97.1885 30.7651 97.3416 30.6647C97.4948 30.5642 97.6748 30.4957 97.869 30.4957C98.1137 30.4957 98.7768 30.636 98.7768 31.7137V33.4579H98.5147V31.7408C98.5147 31.2227 98.3316 30.746 97.7979 30.746C97.4269 30.746 97.1253 31.0409 97.0085 31.3981C96.9817 31.4873 96.9738 31.567 96.9738 31.6866V33.4579H96.7117V29.1628H96.7148L96.7164 29.166Z" fill="white"/>
<path d="M99.6705 31.9815C99.6705 32.9046 100.127 33.2761 100.667 33.2761C101.047 33.2761 101.245 33.19 101.391 33.1119L101.456 33.3351C101.358 33.3972 101.093 33.52 100.634 33.52C99.882 33.52 99.4163 32.9158 99.4163 32.0644C99.4163 31.0998 99.9168 30.4956 100.593 30.4956C101.445 30.4956 101.609 31.3884 101.609 31.8077C101.609 31.8874 101.609 31.9273 101.6 31.9831H99.672L99.6705 31.9815ZM101.336 31.7519C101.342 31.347 101.189 30.7363 100.558 30.7363C99.9799 30.7363 99.7352 31.3023 99.6878 31.7519H101.336Z" fill="white"/>
<path d="M103.9 32.7738C103.9 33.0034 103.907 33.2378 103.938 33.4642H103.7L103.662 33.0481H103.652C103.523 33.2713 103.234 33.5327 102.816 33.5327C102.288 33.5327 102.047 33.1214 102.047 32.7356C102.047 32.066 102.574 31.661 103.641 31.6722V31.5925C103.641 31.3071 103.594 30.7347 102.972 30.7411C102.744 30.7411 102.503 30.8065 102.312 30.9579L102.23 30.7459C102.468 30.5705 102.763 30.4988 102.999 30.4988C103.757 30.4988 103.903 31.1269 103.903 31.6419V32.7754H103.9V32.7738ZM103.638 31.9081C103.067 31.8906 102.315 31.9879 102.315 32.6798C102.315 33.0959 102.566 33.284 102.839 33.284C103.275 33.284 103.526 32.9891 103.611 32.7037C103.632 32.6415 103.638 32.5762 103.638 32.5283V31.9065V31.9081Z" fill="white"/>
<path d="M104.735 31.4316C104.735 31.143 104.729 30.8449 104.715 30.5627H104.956L104.966 31.1494H104.983C105.099 30.7827 105.37 30.4973 105.724 30.4973C105.762 30.4973 105.798 30.5037 105.833 30.5117V30.7827C105.795 30.7763 105.758 30.7763 105.706 30.7763C105.346 30.7763 105.091 31.1191 105.02 31.5862C105.002 31.6723 104.999 31.768 104.999 31.8636V33.4627H104.737V31.43H104.734L104.735 31.4316Z" fill="white"/>
<path d="M106.704 29.9216V30.5641H107.45V30.8017H106.704V32.6862C106.704 33.0528 106.807 33.284 107.085 33.284C107.221 33.284 107.32 33.2665 107.383 33.2426L107.418 33.4594C107.33 33.4976 107.211 33.5248 107.055 33.5248C106.864 33.5248 106.707 33.4594 106.61 33.3255C106.491 33.174 106.447 32.9269 106.447 32.6319V30.8017H106.005V30.5641H106.447V30.0316L106.706 29.9216H106.704Z" fill="white"/>
<path d="M107.918 33.08C108.061 33.1756 108.272 33.2793 108.507 33.2793C108.923 33.2793 109.115 33.0321 109.115 32.7292C109.115 32.4104 108.942 32.2414 108.564 32.0708C108.136 31.889 107.901 31.6307 107.901 31.2816C107.901 30.8591 108.199 30.4956 108.706 30.4956C108.945 30.4956 109.152 30.5753 109.284 30.6774L109.186 30.9149C109.095 30.8432 108.924 30.7395 108.662 30.7395C108.329 30.7395 108.155 30.9771 108.155 31.2401C108.155 31.5415 108.338 31.669 108.692 31.83C109.117 32.015 109.365 32.2525 109.365 32.6957C109.365 33.19 109.017 33.5232 108.484 33.5232C108.233 33.5232 107.994 33.4435 107.821 33.3239L107.915 33.08H107.918Z" fill="white"/>
</svg>
